<svg width="15" height="18" fill="none" xmlns="http://www.w3.org/2000/svg"><path d="M7.703 3.238l4.68 2.717v5.434l-4.68 2.717-4.679-2.717V5.955l4.68-2.717z" fill="#FDFCFE"/><path d="M4.212 6.881l3.23 1.907 3.23-1.907-3.23-1.907-3.23 1.907z" fill="#FFA400"/><path d="M2.998 6.164L7.444 3.54l4.445 2.624 2.998-1.77L7.444 0 0 4.394l2.998 1.77z" fill="#FFA400"/><path d="M10.671 6.881l-3.23 1.907v3.814l3.23-1.908V6.881z" fill="#FF6C0E"/><path d="M11.887 6.164v5.247l-4.445 2.626v3.538l7.443-4.393V4.395l-2.998 1.769z" fill="#FF6C0E"/><path d="M4.212 6.881v3.813l3.23 1.908V8.788L4.213 6.88zm-1.214 4.53V6.164L0 4.394v8.788l2.998 1.77v-3.54zm1.214.717v3.54l3.23 1.907v-3.539l-3.23-1.908z" fill="#415364"/></svg>