<svg width="283" height="207" fill="none" xmlns="http://www.w3.org/2000/svg"><g filter="url(#filter0_d_1_342)"><path d="M30.316 94.978c3.26-2.245 4.89-3.368 5.534-4.347.644-.978 1.037-2.954 1.823-6.906 3.79-19.055 20.672-33.463 40.862-33.463.916 0 1.83.03 2.743.091 6.576.436 9.864.654 11.375-.151 1.51-.805 3.02-3.409 6.04-8.616a61.544 61.544 0 0114.567-17.01C124.11 15.82 137.783 11 151.761 11c29.975 0 54.994 21.591 60.262 50.009.794 4.284 1.191 6.426 2.068 7.568.876 1.142 2.881 2.1 6.891 4.015a54.772 54.772 0 0118.848 14.81A54.398 54.398 0 01252 121.648c0 29.97-24.43 54.352-54.459 54.352H55.503C30.962 176 11 156.076 11 131.585c0-14.776 7.455-28.437 19.316-36.607z" fill="#fff"/><path d="M30.316 94.978c3.26-2.245 4.89-3.368 5.534-4.347.644-.978 1.037-2.954 1.823-6.906 3.79-19.055 20.672-33.463 40.862-33.463.916 0 1.83.03 2.743.091 6.576.436 9.864.654 11.375-.151 1.51-.805 3.02-3.409 6.04-8.616a61.544 61.544 0 0114.567-17.01C124.11 15.82 137.783 11 151.761 11c29.975 0 54.994 21.591 60.262 50.009.794 4.284 1.191 6.426 2.068 7.568.876 1.142 2.881 2.1 6.891 4.015a54.772 54.772 0 0118.848 14.81A54.398 54.398 0 01252 121.648c0 29.97-24.43 54.352-54.459 54.352H55.503C30.962 176 11 156.076 11 131.585c0-14.776 7.455-28.437 19.316-36.607z" stroke="#E2E2E8"/></g><defs><filter id="filter0_d_1_342" x=".5" y=".5" width="282" height="206" filterUnits="userSpaceOnUse" color-interpolation-filters="sRGB"><feFlood flood-opacity="0" result="BackgroundImageFix"/><feColorMatrix in="SourceAlpha" values="0 0 0 0 0 0 0 0 0 0 0 0 0 0 0 0 0 0 127 0" result="hardAlpha"/><feOffset dx="10" dy="10"/><feGaussianBlur stdDeviation="10"/><feColorMatrix values="0 0 0 0 0.469366 0 0 0 0 0.46092 0 0 0 0 0.579167 0 0 0 0.05 0"/><feBlend in2="BackgroundImageFix" result="effect1_dropShadow_1_342"/><feBlend in="SourceGraphic" in2="effect1_dropShadow_1_342" result="shape"/></filter></defs></svg>