<svg width="41" height="41" fill="none" xmlns="http://www.w3.org/2000/svg"><path d="M20.46 25.836c-7.122 0-12.917-5.795-12.917-12.917C7.543 5.795 13.338 0 20.461 0c7.123 0 12.918 5.795 12.918 12.918 0 7.123-5.795 12.918-12.918 12.918zm0-24.555c-6.416 0-11.636 5.22-11.636 11.637 0 6.417 5.22 11.637 11.637 11.637 6.417 0 11.637-5.22 11.637-11.636 0-6.418-5.22-11.638-11.637-11.638z" fill="#59536B"/><path d="M21.102.271H19.82v24.648h1.282V.271z" fill="#59536B"/><path d="M33.003 12.28H8.164v1.281h24.839V12.28zM20.446 9.97c-6.481 0-9.066-5.388-9.173-5.618l1.161-.542.001.002c.102.216 2.374 4.876 8.012 4.876 5.672 0 7.926-4.773 7.947-4.82l1.165.534c-.104.227-2.628 5.568-9.113 5.568zm-8.012 12.056l-1.16-.541c.106-.23 2.691-5.618 9.172-5.618 6.485 0 9.009 5.34 9.113 5.567l-1.165.534c-.09-.196-2.302-4.82-7.947-4.82-5.674.001-7.99 4.83-8.013 4.878z" fill="#59536B"/><path d="M19.765 25.757c-.245-.224-5.988-5.563-5.988-12.839 0-7.287 5.875-12.43 6.126-12.644l.836.97c-.057.05-5.68 4.985-5.68 11.675 0 6.717 5.515 11.842 5.57 11.894l-.864.944z" fill="#59536B"/><path d="M21.161 25.757l-.865-.945c.056-.051 5.57-5.192 5.57-11.894 0-6.705-5.622-11.625-5.678-11.674l.836-.971c.25.215 6.125 5.358 6.125 12.645 0 7.276-5.743 12.616-5.988 12.839zM2.29 32.15l.926 4.017c.2.945.4 1.907.564 2.87h.036c.182-.963.473-1.944.727-2.852l1.145-4.036h1.818l1.108 3.926c.273 1.036.509 1.999.709 2.962h.036c.146-.963.346-1.926.582-2.962l.981-3.926h2.199L10.341 41H8.268l-1.055-3.598a27.213 27.213 0 01-.672-2.836h-.037c-.181 1.09-.418 1.962-.672 2.836L4.706 41h-2.09L0 32.15h2.29zm13.905 0l.926 4.017c.2.945.4 1.907.563 2.87h.037c.182-.963.472-1.944.727-2.852l1.145-4.036h1.817l1.109 3.926c.273 1.036.509 1.999.709 2.962h.036c.145-.963.345-1.926.581-2.962l.982-3.926h2.199L24.245 41h-2.072l-1.054-3.598a27.213 27.213 0 01-.672-2.836h-.037c-.181 1.09-.418 1.962-.672 2.836L18.611 41h-2.09l-2.617-8.85h2.29zm13.903 0l.926 4.017c.2.945.4 1.907.563 2.87h.038c.18-.963.472-1.944.726-2.852l1.145-4.036h1.818l1.108 3.926c.273 1.036.509 1.999.709 2.962h.036c.146-.963.346-1.926.581-2.962l.982-3.926h2.2L38.147 41h-2.071l-1.055-3.598a27.213 27.213 0 01-.672-2.836h-.036c-.182 1.09-.418 1.962-.672 2.836L32.514 41h-2.09l-2.617-8.85h2.29z" fill="#59536B"/></svg>