<svg width="72" height="86" fill="none" xmlns="http://www.w3.org/2000/svg"><path d="M37.1 16.512l22.542 13.09v26.182L37.1 68.875l-22.542-13.09V29.602L37.1 16.512z" fill="#FDFCFE"/><path d="M20.3 34.065l15.568 9.185 15.56-9.185-15.56-9.185L20.3 34.065z" fill="#FFA400"/><path d="M14.446 30.61L35.86 17.967 57.277 30.61l14.446-8.524L35.86.914 0 22.085l14.446 8.524z" fill="#FFA400"/><path d="M51.416 34.065l-15.56 9.186v18.377l15.56-9.192v-18.37z" fill="#FF6C0E"/><path d="M57.271 30.61v25.28L35.856 68.539v17.048l35.861-21.164V22.085L57.271 30.61z" fill="#FF6C0E"/><path d="M20.3 34.065v18.37l15.568 9.193V43.251L20.3 34.065zM14.446 55.89V30.61L0 22.085v42.337l14.446 8.523V55.891zm5.854 3.456V76.4l15.568 9.186V68.538L20.3 59.346z" fill="#415364"/></svg>