<svg width="283" height="207" viewBox="0 0 283 207" fill="none" xmlns="http://www.w3.org/2000/svg">
<g filter="url(#filter0_d_1_343)">
<path d="M30.3157 94.9785C33.5761 92.7328 35.2064 91.6099 35.8503 90.6313C36.4943 89.6527 36.8873 87.6769 37.6733 83.7253C41.4636 64.6701 58.3451 50.2622 78.5346 50.2622C79.4509 50.2622 80.3659 50.2926 81.2779 50.353C87.8542 50.7887 91.1424 51.0065 92.6528 50.2016C94.1633 49.3967 95.673 46.793 98.6924 41.5855C102.443 35.1168 107.377 29.3232 113.26 24.5758C124.11 15.8214 137.783 11 151.761 11C181.736 11 206.755 32.5913 212.023 61.0088C212.817 65.2928 213.214 67.4348 214.091 68.5771C214.967 69.7195 216.972 70.677 220.982 72.5919C228.232 76.054 234.707 81.1098 239.83 87.4024C247.678 97.0432 252 109.205 252 121.648C252 151.618 227.57 176 197.541 176H55.5025C30.9639 176 11.0006 156.076 11 131.585C11 116.809 18.4549 103.148 30.3157 94.9785Z" fill="white"/>
<path d="M30.3157 94.9785C33.5761 92.7328 35.2064 91.6099 35.8503 90.6313C36.4943 89.6527 36.8873 87.6769 37.6733 83.7253C41.4636 64.6701 58.3451 50.2622 78.5346 50.2622C79.4509 50.2622 80.3659 50.2926 81.2779 50.353C87.8542 50.7887 91.1424 51.0065 92.6528 50.2016C94.1633 49.3967 95.673 46.793 98.6924 41.5855C102.443 35.1168 107.377 29.3232 113.26 24.5758C124.11 15.8214 137.783 11 151.761 11C181.736 11 206.755 32.5913 212.023 61.0088C212.817 65.2928 213.214 67.4348 214.091 68.5771C214.967 69.7195 216.972 70.677 220.982 72.5919C228.232 76.054 234.707 81.1098 239.83 87.4024C247.678 97.0432 252 109.205 252 121.648C252 151.618 227.57 176 197.541 176H55.5025C30.9639 176 11.0006 156.076 11 131.585C11 116.809 18.4549 103.148 30.3157 94.9785Z" stroke="#E2E2E8"/>
</g>
<defs>
<filter id="filter0_d_1_343" x="0.5" y="0.5" width="282" height="206" filterUnits="userSpaceOnUse" color-interpolation-filters="sRGB">
<feFlood flood-opacity="0" result="BackgroundImageFix"/>
<feColorMatrix in="SourceAlpha" type="matrix" values="0 0 0 0 0 0 0 0 0 0 0 0 0 0 0 0 0 0 127 0" result="hardAlpha"/>
<feOffset dx="10" dy="10"/>
<feGaussianBlur stdDeviation="10"/>
<feColorMatrix type="matrix" values="0 0 0 0 0.469366 0 0 0 0 0.46092 0 0 0 0 0.579167 0 0 0 0.05 0"/>
<feBlend mode="normal" in2="BackgroundImageFix" result="effect1_dropShadow_1_343"/>
<feBlend mode="normal" in="SourceGraphic" in2="effect1_dropShadow_1_343" result="shape"/>
</filter>
</defs>
</svg>
