<svg width="72" height="86" viewBox="0 0 72 86" fill="none" xmlns="http://www.w3.org/2000/svg">
<path d="M37.1001 16.5119L59.6421 29.6027V55.7843L37.1001 68.8751L14.5581 55.7843V29.6027L37.1001 16.5119Z" fill="#FDFCFE"/>
<path d="M20.3007 34.065L35.8676 43.2503L51.4277 34.065L35.8676 24.8797L20.3007 34.065Z" fill="#FFA400"/>
<path d="M14.4458 30.6093L35.8613 17.9685L57.2768 30.6093L71.7226 22.0853L35.8613 0.913864L0 22.0853L14.4458 30.6093Z" fill="#FFA400"/>
<path d="M51.4161 34.0653L35.8559 43.2506V61.628L51.4161 52.4359V34.0653Z" fill="#FF6C0E"/>
<path d="M57.2714 30.6094V55.8909L35.8559 68.5385V85.5863L71.7172 64.4216V22.0854L57.2714 30.6094Z" fill="#FF6C0E"/>
<path d="M20.3007 34.0653V52.4359L35.8676 61.628V43.2506L20.3007 34.0653Z" fill="#415364"/>
<path d="M14.4458 55.8909V47.124V30.6094L0 22.0854V64.4216L14.4458 72.9455V55.8909Z" fill="#415364"/>
<path d="M20.3007 59.3459V76.4005L35.8676 85.5859V68.538L20.3007 59.3459Z" fill="#415364"/>
</svg>
